<svg width="800" height="600" viewBox="0 0 800 600" xmlns="http://www.w3.org/2000/svg">
  <!-- Background -->
  <rect width="800" height="600" fill="#f8f9fa"/>
  
  <!-- Garden scene -->
  <rect y="300" width="800" height="300" fill="#83be71"/>
  
  <!-- Sky gradient -->
  <rect width="800" height="300" fill="#e6f4fa"/>
  
  <!-- Sun -->
  <circle cx="600" cy="100" r="60" fill="#ffd166"/>
  <g opacity="0.5">
    <line x1="600" y1="20" x2="600" y2="0" stroke="#ffd166" stroke-width="5"/>
    <line x1="600" y1="180" x2="600" y2="200" stroke="#ffd166" stroke-width="5"/>
    <line x1="520" y1="100" x2="500" y2="100" stroke="#ffd166" stroke-width="5"/>
    <line x1="680" y1="100" x2="700" y2="100" stroke="#ffd166" stroke-width="5"/>
    <line x1="543" y1="43" x2="529" y2="29" stroke="#ffd166" stroke-width="5"/>
    <line x1="543" y1="157" x2="529" y2="171" stroke="#ffd166" stroke-width="5"/>
    <line x1="657" y1="43" x2="671" y2="29" stroke="#ffd166" stroke-width="5"/>
    <line x1="657" y1="157" x2="671" y2="171" stroke="#ffd166" stroke-width="5"/>
  </g>
  
  <!-- Mountains far away -->
  <path d="M0 300 L100 200 L200 280 L300 180 L400 250 L500 200 L600 280 L700 150 L800 300 Z" fill="#8fada9" opacity="0.5"/>
  
  <!-- Garden rows -->
  <rect x="50" y="350" width="700" height="30" rx="5" ry="5" fill="#6d4c41"/>
  <rect x="50" y="420" width="700" height="30" rx="5" ry="5" fill="#6d4c41"/>
  <rect x="50" y="490" width="700" height="30" rx="5" ry="5" fill="#6d4c41"/>
  
  <!-- Plants in first row -->
  <g transform="translate(120, 350)">
    <path d="M0 0 Q-15 -30 -30 -20 Q-10 -40 0 -50 Q10 -40 30 -20 Q15 -30 0 0 Z" fill="#4caf50"/>
    <rect x="-3" y="0" width="6" height="20" fill="#8d6e63"/>
  </g>
  
  <g transform="translate(220, 350)">
    <path d="M0 0 Q-20 -40 -40 -30 Q-10 -50 0 -70 Q10 -50 40 -30 Q20 -40 0 0 Z" fill="#4caf50"/>
    <rect x="-3" y="0" width="6" height="20" fill="#8d6e63"/>
  </g>
  
  <g transform="translate(320, 350)">
    <path d="M0 0 Q-15 -30 -30 -20 Q-10 -40 0 -50 Q10 -40 30 -20 Q15 -30 0 0 Z" fill="#4caf50"/>
    <rect x="-3" y="0" width="6" height="20" fill="#8d6e63"/>
  </g>
  
  <g transform="translate(420, 350)">
    <path d="M0 0 Q-20 -40 -40 -30 Q-10 -50 0 -70 Q10 -50 40 -30 Q20 -40 0 0 Z" fill="#4caf50"/>
    <rect x="-3" y="0" width="6" height="20" fill="#8d6e63"/>
  </g>
  
  <g transform="translate(520, 350)">
    <path d="M0 0 Q-15 -30 -30 -20 Q-10 -40 0 -50 Q10 -40 30 -20 Q15 -30 0 0 Z" fill="#4caf50"/>
    <rect x="-3" y="0" width="6" height="20" fill="#8d6e63"/>
  </g>
  
  <g transform="translate(620, 350)">
    <path d="M0 0 Q-20 -40 -40 -30 Q-10 -50 0 -70 Q10 -50 40 -30 Q20 -40 0 0 Z" fill="#4caf50"/>
    <rect x="-3" y="0" width="6" height="20" fill="#8d6e63"/>
  </g>
  
  <!-- Tomato plants in second row -->
  <g transform="translate(120, 420)">
    <path d="M0 0 C-15 -30 -30 -20 -20 -50 C-10 -30 0 -60 10 -30 C20 -50 30 -30 15 0 Z" fill="#4caf50"/>
    <circle cx="-15" cy="-30" r="8" fill="#f44336"/>
    <circle cx="10" cy="-40" r="8" fill="#f44336"/>
    <circle cx="5" cy="-20" r="8" fill="#f44336"/>
    <rect x="-3" y="0" width="6" height="20" fill="#8d6e63"/>
  </g>
  
  <g transform="translate(220, 420)">
    <path d="M0 0 C-15 -30 -30 -20 -20 -50 C-10 -30 0 -60 10 -30 C20 -50 30 -30 15 0 Z" fill="#4caf50"/>
    <circle cx="-15" cy="-30" r="8" fill="#f44336"/>
    <circle cx="10" cy="-40" r="8" fill="#f44336"/>
    <circle cx="5" cy="-20" r="8" fill="#f44336"/>
    <rect x="-3" y="0" width="6" height="20" fill="#8d6e63"/>
  </g>
  
  <g transform="translate(320, 420)">
    <path d="M0 0 C-15 -30 -30 -20 -20 -50 C-10 -30 0 -60 10 -30 C20 -50 30 -30 15 0 Z" fill="#4caf50"/>
    <circle cx="-15" cy="-30" r="8" fill="#f44336"/>
    <circle cx="10" cy="-40" r="8" fill="#f44336"/>
    <circle cx="5" cy="-20" r="8" fill="#f44336"/>
    <rect x="-3" y="0" width="6" height="20" fill="#8d6e63"/>
  </g>
  
  <g transform="translate(420, 420)">
    <path d="M0 0 C-15 -30 -30 -20 -20 -50 C-10 -30 0 -60 10 -30 C20 -50 30 -30 15 0 Z" fill="#4caf50"/>
    <circle cx="-15" cy="-30" r="8" fill="#f44336"/>
    <circle cx="10" cy="-40" r="8" fill="#f44336"/>
    <circle cx="5" cy="-20" r="8" fill="#f44336"/>
    <rect x="-3" y="0" width="6" height="20" fill="#8d6e63"/>
  </g>
  
  <g transform="translate(520, 420)">
    <path d="M0 0 C-15 -30 -30 -20 -20 -50 C-10 -30 0 -60 10 -30 C20 -50 30 -30 15 0 Z" fill="#4caf50"/>
    <circle cx="-15" cy="-30" r="8" fill="#f44336"/>
    <circle cx="10" cy="-40" r="8" fill="#f44336"/>
    <circle cx="5" cy="-20" r="8" fill="#f44336"/>
    <rect x="-3" y="0" width="6" height="20" fill="#8d6e63"/>
  </g>
  
  <g transform="translate(620, 420)">
    <path d="M0 0 C-15 -30 -30 -20 -20 -50 C-10 -30 0 -60 10 -30 C20 -50 30 -30 15 0 Z" fill="#4caf50"/>
    <circle cx="-15" cy="-30" r="8" fill="#f44336"/>
    <circle cx="10" cy="-40" r="8" fill="#f44336"/>
    <circle cx="5" cy="-20" r="8" fill="#f44336"/>
    <rect x="-3" y="0" width="6" height="20" fill="#8d6e63"/>
  </g>
  
  <!-- Corn plants in third row -->
  <g transform="translate(120, 490)">
    <rect x="-5" y="-80" width="10" height="80" fill="#8bc34a"/>
    <path d="M0 -80 L-20 -60 L-15 -60 L-30 -40 L-20 -40 L-40 -20 L-15 -20 L-20 0 L0 -5 L20 0 L15 -20 L40 -20 L20 -40 L30 -40 L15 -60 L20 -60 Z" fill="#8bc34a"/>
  </g>
  
  <g transform="translate(220, 490)">
    <rect x="-5" y="-90" width="10" height="90" fill="#8bc34a"/>
    <path d="M0 -90 L-20 -70 L-15 -70 L-30 -50 L-20 -50 L-40 -30 L-15 -30 L-20 -10 L0 -15 L20 -10 L15 -30 L40 -30 L20 -50 L30 -50 L15 -70 L20 -70 Z" fill="#8bc34a"/>
  </g>
  
  <g transform="translate(320, 490)">
    <rect x="-5" y="-80" width="10" height="80" fill="#8bc34a"/>
    <path d="M0 -80 L-20 -60 L-15 -60 L-30 -40 L-20 -40 L-40 -20 L-15 -20 L-20 0 L0 -5 L20 0 L15 -20 L40 -20 L20 -40 L30 -40 L15 -60 L20 -60 Z" fill="#8bc34a"/>
  </g>
  
  <g transform="translate(420, 490)">
    <rect x="-5" y="-90" width="10" height="90" fill="#8bc34a"/>
    <path d="M0 -90 L-20 -70 L-15 -70 L-30 -50 L-20 -50 L-40 -30 L-15 -30 L-20 -10 L0 -15 L20 -10 L15 -30 L40 -30 L20 -50 L30 -50 L15 -70 L20 -70 Z" fill="#8bc34a"/>
  </g>
  
  <g transform="translate(520, 490)">
    <rect x="-5" y="-80" width="10" height="80" fill="#8bc34a"/>
    <path d="M0 -80 L-20 -60 L-15 -60 L-30 -40 L-20 -40 L-40 -20 L-15 -20 L-20 0 L0 -5 L20 0 L15 -20 L40 -20 L20 -40 L30 -40 L15 -60 L20 -60 Z" fill="#8bc34a"/>
  </g>
  
  <g transform="translate(620, 490)">
    <rect x="-5" y="-90" width="10" height="90" fill="#8bc34a"/>
    <path d="M0 -90 L-20 -70 L-15 -70 L-30 -50 L-20 -50 L-40 -30 L-15 -30 L-20 -10 L0 -15 L20 -10 L15 -30 L40 -30 L20 -50 L30 -50 L15 -70 L20 -70 Z" fill="#8bc34a"/>
  </g>
  
  <!-- Garden Tools -->
  <g transform="translate(750, 400) rotate(-30)">
    <rect x="-5" y="-100" width="10" height="100" fill="#8d6e63"/>
    <rect x="-20" y="-120" width="40" height="20" rx="2" ry="2" fill="#90a4ae"/>
  </g>
  
  <!-- Watering can -->
  <g transform="translate(70, 520)">
    <path d="M0 0 L30 0 L35 -10 L35 -30 L25 -40 L5 -40 L-5 -30 L-5 -10 Z" fill="#90a4ae"/>
    <path d="M35 -20 L50 -20 L50 -25 L35 -25 Z" fill="#90a4ae"/>
    <ellipse cx="0" cy="-40" rx="5" ry="2" fill="#90a4ae"/>
  </g>
  
  <!-- Text Banner -->
  <rect x="100" y="80" width="400" height="120" rx="10" ry="10" fill="rgba(255, 255, 255, 0.8)"/>
  <text x="300" y="130" font-family="Arial" font-size="24" font-weight="bold" text-anchor="middle" fill="#2e7d32">Complete Gardening Guide</text>
  <text x="300" y="160" font-family="Arial" font-size="16" text-anchor="middle" fill="#333">Everything you need to know for a thriving garden</text>
</svg>