<svg viewBox="0 0 400 400" xmlns="http://www.w3.org/2000/svg">
  <!-- Pot -->
  <ellipse cx="200" cy="380" rx="70" ry="18" fill="#8B4513"/>
  <rect x="130" y="325" width="140" height="55" fill="#A0522D" rx="8"/>
  <ellipse cx="200" cy="325" rx="70" ry="18" fill="#CD853F"/>
  
  <!-- Soil -->
  <ellipse cx="200" cy="325" rx="65" ry="16" fill="#654321"/>
  
  <!-- Peace lily leaves -->
  <!-- Large arching leaves -->
  <path d="M200,320 Q160,280 140,220 Q130,200 140,180 Q160,170 180,180 Q200,190 210,210 Q215,230 200,250 Q190,280 200,320" 
        fill="#228B22" stroke="#006400" stroke-width="2"/>
  
  <path d="M200,320 Q240,280 260,220 Q270,200 260,180 Q240,170 220,180 Q200,190 190,210 Q185,230 200,250 Q210,280 200,320" 
        fill="#32CD32" stroke="#006400" stroke-width="2"/>
  
  <path d="M200,320 Q180,260 170,200 Q165,180 175,160 Q195,150 215,160 Q225,180 220,200 Q210,260 200,320" 
        fill="#2E8B57" stroke="#006400" stroke-width="2"/>
  
  <path d="M200,320 Q220,260 230,200 Q235,180 225,160 Q205,150 185,160 Q175,180 180,200 Q190,260 200,320" 
        fill="#228B22" stroke="#006400" stroke-width="2"/>
  
  <!-- White peace lily flower -->
  <g transform="translate(220,160)">
    <!-- Spadix (center spike) -->
    <rect x="-2" y="-20" width="4" height="40" fill="#FFFF99" rx="2"/>
    
    <!-- White spathe (petal-like bract) -->
    <path d="M-20,0 Q-30,-20 -20,-35 Q0,-40 20,-35 Q30,-20 20,0 Q15,10 0,15 Q-15,10 -20,0" 
          fill="#FFFFFF" stroke="#E0E0E0" stroke-width="1"/>
  </g>
  
  <!-- Leaf veins -->
  <g stroke="#006400" stroke-width="1" fill="none" opacity="0.7">
    <path d="M150,250 Q160,220 170,190"/>
    <path d="M160,250 Q170,220 180,190"/>
    <path d="M250,250 Q240,220 230,190"/>
    <path d="M240,250 Q230,220 220,190"/>
    <path d="M190,280 Q195,240 200,200"/>
    <path d="M210,280 Q205,240 200,200"/>
  </g>
</svg>